<?xml version="1.0" encoding="utf-8"?>
<!-- Generator: Adobe Illustrator 24.0.1, SVG Export Plug-In . SVG Version: 6.00 Build 0)  -->
<svg version="1.1" id="Calque_1" xmlns="http://www.w3.org/2000/svg" xmlns:xlink="http://www.w3.org/1999/xlink" x="0px" y="0px"
	 viewBox="0 0 100 32" style="enable-background:new 0 0 100 32;" xml:space="preserve">
<style type="text/css">
	.st0{fill:#806966;}
	.st1{fill:#FB4400;}
	.st2{fill:#56C0E7;}
	.st3{fill:#43526E;}
</style>
<g>
	<g>
		<path class="st0" d="M13.81,13.76c0,0.34-0.02,1.39-0.06,1.58c-0.04,0.2-0.11,0.37-0.21,0.52c-0.1,0.15-0.2,0.28-0.3,0.38
			c-0.1,0.1-0.25,0.2-0.44,0.3c-0.19,0.09-0.37,0.17-0.53,0.23c-0.16,0.06-0.38,0.14-0.66,0.22c-0.48,0.15-0.85,0.28-1.11,0.41
			v-3.63c-0.21,0.12-0.46,0.2-0.72,0.2c-0.28,0-0.53-0.08-0.76-0.21v0.45c-0.05,0.18-0.13,0.33-0.27,0.43
			c-0.21,0.16-0.63,0.33-1.27,0.53c-0.67,0.21-1.18,0.42-1.52,0.61c-1.11,0.63-1.68,0.83-1.69,3.98c0.21-0.12,0.46-0.2,0.72-0.2
			c0.26,0,0.5,0.07,0.72,0.19c0-0.36,0.02-1.38,0.06-1.56c0.04-0.2,0.11-0.37,0.21-0.52c0.1-0.15,0.2-0.28,0.3-0.38
			c0.11-0.1,0.25-0.2,0.44-0.3c0.19-0.09,0.37-0.17,0.53-0.23c0.16-0.06,0.38-0.14,0.66-0.22c0.48-0.15,0.85-0.28,1.11-0.41v3.65
			c0.22-0.13,0.48-0.21,0.76-0.21c0.26,0,0.51,0.07,0.72,0.2v-0.43c0.05-0.18,0.13-0.33,0.27-0.43c0.21-0.16,0.63-0.33,1.27-0.53
			c0.67-0.21,1.18-0.42,1.52-0.61c1.11-0.63,1.68-0.83,1.69-3.96c-0.21,0.11-0.44,0.18-0.69,0.18
			C14.29,13.97,14.03,13.89,13.81,13.76z"/>
		<g>
			<path class="st1" d="M5.7,19.76c-0.21-0.12-0.45-0.19-0.72-0.19c-0.26,0-0.51,0.07-0.72,0.2c-0.45,0.25-0.76,0.73-0.76,1.28
				c0,0.82,0.66,1.48,1.48,1.48s1.48-0.66,1.48-1.48C6.46,20.49,6.15,20.01,5.7,19.76z"/>
			<path class="st1" d="M10.5,19.76c-0.21-0.12-0.46-0.2-0.72-0.2c-0.28,0-0.53,0.08-0.76,0.21c-0.43,0.26-0.72,0.73-0.72,1.27
				c0,0.82,0.66,1.48,1.48,1.48s1.48-0.66,1.48-1.48C11.25,20.49,10.94,20.01,10.5,19.76z"/>
		</g>
		<g>
			<path class="st2" d="M9.77,11.01c-0.82,0-1.48,0.66-1.48,1.48c0,0.54,0.29,1.01,0.72,1.27c0.22,0.13,0.48,0.21,0.76,0.21
				c0.26,0,0.51-0.07,0.72-0.2c0.45-0.25,0.76-0.73,0.76-1.28C11.25,11.67,10.59,11.01,9.77,11.01z"/>
			<path class="st2" d="M14.56,11.01c-0.82,0-1.48,0.66-1.48,1.48c0,0.54,0.3,1.01,0.73,1.27c0.22,0.13,0.47,0.21,0.75,0.21
				c0.25,0,0.48-0.07,0.69-0.18c0.47-0.25,0.79-0.74,0.79-1.3C16.04,11.67,15.38,11.01,14.56,11.01z"/>
		</g>
	</g>
	<g>
		<path class="st3" d="M23.71,14.17v5.73h2.99v1.2h-4.32v-6.93H23.71z"/>
		<path class="st3" d="M32.43,18.9h-3.91c0.17,0.75,0.74,1.21,1.51,1.21c0.54,0,1.05-0.21,1.43-0.59l0.69,0.72
			c-0.53,0.57-1.3,0.91-2.23,0.91c-1.64,0-2.72-1.09-2.72-2.68c0-1.61,1.11-2.7,2.69-2.7C31.76,15.76,32.56,16.98,32.43,18.9z
			 M31.26,18.04c-0.03-0.78-0.55-1.28-1.36-1.28c-0.76,0-1.3,0.49-1.42,1.28H31.26z"/>
		<path class="st3" d="M35.13,16.75c-0.42,0-0.71,0.14-0.71,0.47c0,0.89,2.8,0.43,2.8,2.33c0,1.08-0.96,1.6-2.09,1.6
			c-0.8,0-1.63-0.26-2.19-0.74l0.45-0.9c0.49,0.42,1.22,0.65,1.79,0.65c0.45,0,0.78-0.15,0.78-0.49c0-0.98-2.76-0.45-2.75-2.33
			c0-1.09,0.93-1.59,2-1.59c0.69,0,1.42,0.21,1.94,0.56l-0.47,0.93C36.17,16.93,35.59,16.75,35.13,16.75z"/>
		<path class="st3" d="M42.87,14.17l2.18,4.44l2.17-4.44h1.52v6.93h-1.21l-0.01-4.95l-2.05,4.24h-0.86l-2.05-4.24v4.95h-1.23v-6.93
			H42.87z"/>
		<path class="st3" d="M55.5,18.45c0,1.61-1.13,2.7-2.78,2.7c-1.67,0-2.8-1.09-2.8-2.7c0-1.6,1.13-2.68,2.8-2.68
			C54.37,15.76,55.5,16.84,55.5,18.45z M51.21,18.47c0,0.95,0.61,1.6,1.5,1.6c0.87,0,1.48-0.65,1.48-1.6c0-0.95-0.61-1.6-1.48-1.6
			C51.83,16.86,51.21,17.52,51.21,18.47z"/>
		<path class="st3" d="M62.24,18.48c0,1.59-0.98,2.67-2.48,2.67c-0.8,0-1.42-0.33-1.8-0.91v0.86h-1.29v-7.34h1.29v2.92
			c0.38-0.58,0.99-0.91,1.78-0.91C61.23,15.76,62.24,16.85,62.24,18.48z M60.93,18.44c0-0.93-0.61-1.59-1.48-1.59
			c-0.88,0-1.49,0.66-1.49,1.59c0,0.95,0.61,1.6,1.49,1.6C60.32,20.04,60.93,19.38,60.93,18.44z"/>
		<path class="st3" d="M64.69,14.29c0,0.42-0.29,0.71-0.69,0.71c-0.41,0-0.69-0.3-0.69-0.71s0.29-0.71,0.69-0.71
			C64.41,13.58,64.69,13.87,64.69,14.29z M64.65,15.8v5.3h-1.29v-5.3H64.65z"/>
		<path class="st3" d="M67.57,13.75v7.34h-1.29v-7.34H67.57z"/>
		<path class="st3" d="M70.56,14.29c0,0.42-0.29,0.71-0.69,0.71c-0.41,0-0.69-0.3-0.69-0.71s0.29-0.71,0.69-0.71
			C70.28,13.58,70.56,13.87,70.56,14.29z M70.51,15.8v5.3h-1.29v-5.3H70.51z"/>
		<path class="st3" d="M75.21,20.77c-0.41,0.25-0.86,0.39-1.33,0.39c-0.86,0-1.55-0.49-1.55-1.58v-2.61h-0.74l-0.01-0.94h0.75v-1.46
			h1.28v1.46h1.51v0.94H73.6v2.39c0,0.5,0.21,0.67,0.55,0.67c0.22,0,0.47-0.08,0.75-0.22L75.21,20.77z"/>
		<path class="st3" d="M81.26,15.8v5.3h-1.29v-0.84c-0.38,0.57-0.98,0.9-1.77,0.9c-1.51,0-2.52-1.11-2.52-2.72
			c0-1.59,0.99-2.67,2.47-2.68c0.81-0.01,1.44,0.32,1.82,0.9V15.8H81.26z M79.98,18.65v-0.38c-0.08-0.85-0.66-1.43-1.5-1.43
			c-0.88,0-1.49,0.67-1.5,1.61c0.01,0.95,0.61,1.61,1.5,1.61C79.31,20.08,79.9,19.51,79.98,18.65z"/>
		<path class="st3" d="M84.19,14.29c0,0.42-0.29,0.71-0.69,0.71c-0.41,0-0.69-0.3-0.69-0.71s0.29-0.71,0.69-0.71
			C83.91,13.58,84.19,13.87,84.19,14.29z M84.14,15.8v5.3h-1.29v-5.3H84.14z"/>
		<path class="st3" d="M90.88,17.79v3.31h-1.3v-2.93c0-0.74-0.45-1.2-1.18-1.2c-0.87,0.01-1.39,0.65-1.39,1.52v2.6h-1.29v-5.3h1.29
			v0.99c0.38-0.7,1.04-1.03,1.9-1.04C90.14,15.75,90.88,16.54,90.88,17.79z"/>
		<path class="st3" d="M93.91,16.75c-0.42,0-0.71,0.14-0.71,0.47c0,0.89,2.8,0.43,2.8,2.33c0,1.08-0.96,1.6-2.09,1.6
			c-0.8,0-1.63-0.26-2.19-0.74l0.45-0.9c0.49,0.42,1.22,0.65,1.79,0.65c0.45,0,0.78-0.15,0.78-0.49c0-0.98-2.76-0.45-2.75-2.33
			c0-1.09,0.93-1.59,2-1.59c0.69,0,1.42,0.21,1.94,0.56l-0.47,0.93C94.95,16.93,94.37,16.75,93.91,16.75z"/>
	</g>
</g>
</svg>
