<?xml version="1.0" encoding="utf-8"?>
<!-- Generator: Adobe Illustrator 24.0.1, SVG Export Plug-In . SVG Version: 6.00 Build 0)  -->
<svg version="1.1" id="Calque_1" xmlns="http://www.w3.org/2000/svg" xmlns:xlink="http://www.w3.org/1999/xlink" x="0px" y="0px"
	 viewBox="0 0 100 32" style="enable-background:new 0 0 100 32;" xml:space="preserve">
<style type="text/css">
	.st0{fill:#806966;}
	.st1{fill:#FB4400;}
	.st2{fill:#56C0E7;}
	.st3{fill:#43526E;}
	.st4{font-family:'Montserrat-Bold';}
	.st5{font-size:10.4809px;}
</style>
<g>
	<path class="st0" d="M13.81,13.76c0,0.34-0.02,1.39-0.06,1.58c-0.04,0.2-0.11,0.37-0.21,0.52c-0.1,0.15-0.2,0.28-0.3,0.38
		c-0.1,0.1-0.25,0.2-0.44,0.3c-0.19,0.09-0.37,0.17-0.53,0.23c-0.16,0.06-0.38,0.14-0.66,0.22c-0.48,0.15-0.85,0.28-1.11,0.41v-3.63
		c-0.21,0.12-0.46,0.2-0.72,0.2c-0.28,0-0.53-0.08-0.76-0.21v0.45c-0.05,0.18-0.13,0.33-0.27,0.43c-0.21,0.16-0.63,0.33-1.27,0.53
		c-0.67,0.21-1.18,0.42-1.52,0.61c-1.11,0.63-1.68,0.83-1.69,3.98c0.21-0.12,0.46-0.2,0.72-0.2c0.26,0,0.5,0.07,0.72,0.19
		c0-0.36,0.02-1.38,0.06-1.56c0.04-0.2,0.11-0.37,0.21-0.52c0.1-0.15,0.2-0.28,0.3-0.38c0.11-0.1,0.25-0.2,0.44-0.3
		c0.19-0.09,0.37-0.17,0.53-0.23c0.16-0.06,0.38-0.14,0.66-0.22c0.48-0.15,0.85-0.28,1.11-0.41v3.65c0.22-0.13,0.48-0.21,0.76-0.21
		c0.26,0,0.51,0.07,0.72,0.2v-0.43c0.05-0.18,0.13-0.33,0.27-0.43c0.21-0.16,0.63-0.33,1.27-0.53c0.67-0.21,1.18-0.42,1.52-0.61
		c1.11-0.63,1.68-0.83,1.69-3.96c-0.21,0.11-0.44,0.18-0.69,0.18C14.29,13.97,14.03,13.89,13.81,13.76z"/>
	<g>
		<path class="st1" d="M5.7,19.76c-0.21-0.12-0.45-0.19-0.72-0.19c-0.26,0-0.51,0.07-0.72,0.2c-0.45,0.25-0.76,0.73-0.76,1.28
			c0,0.82,0.66,1.48,1.48,1.48s1.48-0.66,1.48-1.48C6.46,20.49,6.15,20.01,5.7,19.76z"/>
		<path class="st1" d="M10.5,19.76c-0.21-0.12-0.46-0.2-0.72-0.2c-0.28,0-0.53,0.08-0.76,0.21c-0.43,0.26-0.72,0.73-0.72,1.27
			c0,0.82,0.66,1.48,1.48,1.48s1.48-0.66,1.48-1.48C11.25,20.49,10.94,20.01,10.5,19.76z"/>
	</g>
	<g>
		<path class="st2" d="M9.77,11.01c-0.82,0-1.48,0.66-1.48,1.48c0,0.54,0.29,1.01,0.72,1.27c0.22,0.13,0.48,0.21,0.76,0.21
			c0.26,0,0.51-0.07,0.72-0.2c0.45-0.25,0.76-0.73,0.76-1.28C11.25,11.67,10.59,11.01,9.77,11.01z"/>
		<path class="st2" d="M14.56,11.01c-0.82,0-1.48,0.66-1.48,1.48c0,0.54,0.3,1.01,0.73,1.27c0.22,0.13,0.47,0.21,0.75,0.21
			c0.25,0,0.48-0.07,0.69-0.18c0.47-0.25,0.79-0.74,0.79-1.3C16.04,11.67,15.38,11.01,14.56,11.01z"/>
	</g>
</g>
<text transform="matrix(1 0 0 1 22.2954 21.2119)" class="st3 st4 st5">Vélopolitain</text>
</svg>
